<svg xmlns="http://www.w3.org/2000/svg" width="534" height="534" viewBox="0 0 400 400"><path fill="#fff" d="M0 0h400v400H0V0z"/><path fill="#000001" d="M275.65 68.5c5.17-2.38 9.14-8.05 15.44-7.18-3 5.13-8.03 8.66-10.8 13.94-2.03 3.58-4.35 7-6.78 10.32-3.6 5-6.06 10.68-8.96 16.1-2.73 4.87-2.7 10.63-4.44 15.84-4.32 13.5-8.62 27.2-9.33 41.43-.14 3.1 1.2 6.48-.46 9.36-6.5 8.26-15.9 13.7-21.83 22.45-2.7 3.42-.04 7.8 2.05 10.8 2.88 3 6.3 5.93 6.82 10.37.76 7.3-2.5 14.2-4.12 21.2-1.98 8.95-5.3 17.6-6.43 26.73-1.63 11.1-5.6 21.87-5.42 33.2.12 5.33-.9 10.6-.86 15.94-.25 5.72 1.35 11.3 1.74 16.97.25 6.36-.35 12.75.66 19.06.6 2.9.04 5.84-.7 8.67-2.3-2.4-3.94-5.3-4.73-8.5-1.23-5.37-6.04-8.95-7.28-14.32-1.14-4.72-3.83-8.8-5.9-13.14-3.9-7.6-8.06-15.45-14.77-20.98-1.34-1.33-3.4-2.45-3.24-4.62-.75-10 5.04-19.1 5.2-29.06-.2-7.74 1.8-15.38.98-23.12-.4-4.3-1.74-8.45-3.03-12.55l-2.4-.07c-1.06 4.42-2.22 8.8-3.54 13.16-1.65 5.48-1.67 11.5-4.54 16.57-1.7 2.22-4.55 3-7.02 4.04-8.44 3.1-16.7 6.82-24.24 11.74-5.63 3.94-11.73 7.44-18.5 8.94-.52-3.64-1.24-7.6.64-11 4.73-9.46 12.55-16.95 17.58-26.23 3.8-8.58 4.84-18.28 4-27.57-.35-4.75-5.2-9.62-1.92-14.2 5.57-8.58 13.63-15.1 21.2-21.85-2.47-3.36-4.92-6.8-8.1-9.55-3.82-3.25-8.24-5.7-12.06-8.95-2.47-2.06-2-5.53-1.65-8.35 1.22-7.97.56-16.04.73-24.06.2-6.64-.8-13.2-1.28-19.8-.47-5.54-2.4-10.85-4.9-15.77-2.3-4.5-6.43-7.76-8.4-12.45-2.07-4.63-4.25-9.2-6.06-13.95 5.7.55 9.92 4.75 14.97 6.97 7.05 3.06 13.32 7.9 20.88 9.75 5.3 1.3 10.55 3.18 16.08 2.94 5.77-.16 11.55 0 17.26.9.65 4.6-.1 9.28-1.76 13.6-1.15 3.55-3.46 6.83-3.16 10.73.18 13.63-1.14 28.37 6.57 40.43 7.3-8.83 14.5-18 18.95-28.65 3.35-6.96 6.43-14.1 8.3-21.63.6-1.98 1-4.62 3.4-5.12 6.96-2.25 12.53-7.16 18.86-10.63 4.5-2.72 9.48-4.88 13.07-8.85 3.8-4.02 8.13-7.63 13.2-9.97z"/><path fill="#00ff21" d="M157.86 93.27c8.8 1.53 17.45 3.8 26.37 4.56.65 8.93.1 17.9.56 26.82.9 10.68 2.18 21.5 6.13 31.56 2.1 5.78 4.98 11.22 7.42 16.85 4.8-4.8 9.2-10.1 12.34-16.16 2.24-4.3 5.42-8 8.5-11.72 3.16-3.82 4.66-8.63 6.95-12.96 2.2-4.3 5.45-7.96 7.7-12.23 2.25-4.13 3.5-8.9 6.75-12.42 3.32-3.85 7.9-6.5 12.8-7.8.83-.54 2.48.05 2 1.2-2.65 10-6.96 19.45-10.5 29.14-2.88 9.7-3.88 19.85-4.44 29.9-.02 4.33-3.9 7-6.52 9.92-5 4.65-8.32 10.73-11.6 16.65-1.95 3.7-3.98 7.97-2.55 12.2 2.3 5.43 7.54 8.8 10.44 13.85 1.14 4.23-1.36 8.36-2.43 12.37-3.1 8.47-3.3 17.6-5.93 26.2-2.37 7.67-2.97 15.76-5.54 23.38-3.62 11.22-2.97 23.1-3.04 34.7l-2.55.15c-3.1-6.97-7.18-13.4-11.38-19.74-2.08-3.04-3.4-6.73-2.72-10.45 2.15-12.28 3.1-24.78 2.93-37.26-.02-5.4.22-10.9-1.18-16.17-.63-3.12-1.92-6.2-1.74-9.4 2.6-4.33 6.55-7.8 8.23-12.7-8.64 1.94-14.1 9.3-19.68 15.52-3.9 4.16-4.45 10.05-6.78 15.04-2 4.32-3.58 8.9-6.27 12.85-4.25 5.5-11.4 7.45-17.9 8.77 2.38-7.55 6.34-14.54 8.3-22.23 1.14-4.7-1.72-9-2.05-13.6-.3-4.45-.9-9.6 2.3-13.24 6.04-7.35 13.77-13.03 20.93-19.2 2-1.6 3.78-4.27 2.5-6.85-1.8-2.2-4.32-3.68-6.5-5.5-3.57-2.75-6.17-6.47-9.38-9.6-3.73-3.67-7.95-7-10.62-11.6-1.38-2.25-1.08-4.98-.95-7.48.94-10.13.35-20.3.83-30.45.33-7.68-.47-15.34-1.74-22.9z"/></svg>