<svg xmlns="http://www.w3.org/2000/svg" width="933.333" height="933.333" version="1" viewBox="0 0 700 700"><path d="M501.5 108.2c-1.6.6-6.5 3.4-10.7 6.2-4.2 2.8-10.4 6.6-13.7 8.5-3.3 1.9-10.3 7.3-15.6 12.2-5.2 4.8-12.1 10.2-15.3 12-3.1 1.8-12 7.2-19.7 11.9-7.7 4.8-16.6 9.7-19.8 11-3.2 1.3-6.2 2.9-6.6 3.5-.5.5-2.3 5.7-4.1 11.5-9.2 30-24.4 57.9-43.2 79.5l-3.5 3.9-3.2-6.8c-5.2-10.8-7.1-22-7.8-46.1l-.6-21 3.3-8.4c4.5-11.7 6-17.6 6-24.7v-6.1l-3.7-.6c-2.1-.4-11.2-.9-20.3-1.3-24.3-.9-38.1-4.6-58.2-15.6-5.9-3.2-11-5.8-11.4-5.8-.3 0-4.6-2.3-9.5-5.1-8.5-4.9-16.7-8.4-17.6-7.6-.2.3 2.3 6.6 5.6 14.2 4.2 9.6 7.9 16.2 12.2 21.9 6.4 8.4 10.8 16.9 13.4 25.9 3.8 13.3 5.8 63.3 3.4 85.8-1 8.7-.9 11 .2 13.5.8 1.7 5.9 6.2 11.9 10.7 12.3 9.2 15.7 12.3 21.5 19.8l4.3 5.5-8.4 7.4c-11 9.5-22.2 21.4-26.8 28.1-4.4 6.5-4.6 10.1-1.1 19.3 2.2 5.8 2.5 8.3 2.5 19 0 26.2-3.1 34-26.8 66.4-10.4 14.2-12.7 19.2-12.7 27.9 0 3.9.3 7.4.6 7.8 1.4 1.3 15-4.3 24.9-10.4 18.9-11.6 27.3-16 40-21.1 23.3-9.4 23.5-9.6 27.1-26.3 1.1-5.1 3.6-15.4 5.6-23 3.3-12.3 3.9-13.7 5.9-13.7 1.9 0 2.5 1.1 4.5 8.2 2 6.9 2.4 10.6 2.4 21.8-.1 24.2-2 42-6 56-2 7.1-3.8 16.1-4.2 20.7l-.6 8.3 8.9 9.2c5.4 5.6 11 12.7 14.1 17.8 6.9 11.6 16.1 30.1 18.8 38 1.2 3.6 4.1 9.4 6.3 12.9 2.3 3.4 5.1 8.8 6.2 11.8 4.3 11.5 8.3 17.2 9.4 13.6 1.3-4.4.1-40.4-2.1-58-2.3-19.3-.6-53.7 3.8-74.3 1.7-8 4.1-20.6 5.5-28 2.2-12.1 8.1-36.1 14.9-60 4.5-15.5 5-25.6 1.6-31.8-.7-1.3-3.5-4.8-6.3-7.9-5.6-6.2-8.7-12.2-8.8-17 0-4.4 8.1-14.2 22.6-27.3 6.4-5.8 13.2-12.3 15-14.5l3.3-4.1.4-14.4c.5-17.5 3.3-32.2 10.8-56.7 2.9-9.2 6.2-21.5 7.5-27.3 2.9-12.9 11.7-31.5 22.7-47.6 4.1-6 8.6-12.9 10-15.4 1.4-2.5 6.2-8.8 10.7-13.9 4.4-5.2 8-9.8 8-10.3 0-1.1-3.9-.9-7.5.4zm-206.8 58.7c8.3 1.7 17.8 3.3 21.1 3.7l6.1.6.5 5.2c.3 2.8.7 15.9 1 29.1.7 39.5 4.4 56 20 89.9l3.7 7.9 4.9-5.4c4.8-5.2 12.1-15.4 19.1-26.9 1.9-3 6.3-9 9.8-13.5 3.8-4.7 8.3-12.1 11.1-18 2.6-5.5 7.5-14.2 10.9-19.3 3.4-5.1 8.1-13.5 10.5-18.7 4.8-10.2 10.5-17.2 17.3-21.2 6.1-3.6 13.7-6.3 15.1-5.4 1.6 1-1.4 10.8-10.8 35.6-9.4 24.6-12.2 36.6-13.6 58.8-.9 15.6-1.3 16.4-11.7 27.5-6.1 6.6-11.4 13.5-15.6 20.6-13.5 22.8-13.5 28.9 0 44.1 10.6 11.8 10.7 12.6 5.4 29.1-2 6-4.7 16.7-6.1 23.9-1.3 7.1-4 19.5-6 27.5-1.9 8-4.6 19.4-5.9 25.5-1.4 6-3.4 14.3-4.5 18.3-2.6 9.7-4 24.3-4 41.3 0 13.8 0 13.9-2.2 13.8-1.8 0-3-1.5-5.8-7.2-1.9-3.9-7-12.6-11.3-19.4-10.1-16-10.5-17.8-8.3-32.9 2.9-20.6 3.6-30.3 3.6-54.4 0-21.9-.1-24.3-2.7-35.7l-2.7-12.2 5.6-7.3c5-6.7 8.8-12.8 8.8-14.3 0-2.7-11 2.9-18 9.2-11 9.8-19.7 20.9-22.5 28.6-8.3 22.2-14.3 34.8-18.8 39.5-3.7 3.9-11.8 8.3-19.6 10.6-6.4 1.9-8.1 2-8.1.6 0-.6 2.9-8.5 6.5-17.5 7.9-19.6 8.4-23.1 5.6-34.2-2.5-9.7-2.8-22.7-.6-27.9 2-4.9 11.5-14.6 27.5-28.1 7.4-6.3 14.3-12.8 15.4-14.4 2.6-4.1 1.5-7.1-4.6-12.1-8.6-7.1-37.8-37-40.4-41.3l-2.3-4.1.8-36.1c.7-32.9.4-45.6-1.5-61.1-.5-4.1-.3-5.2.8-5.2.8 0 8.2 1.3 16.5 2.9z"/></svg>