<svg xmlns="http://www.w3.org/2000/svg" width="933.333" height="933.333" viewBox="0 0 700 700"><path d="M501.1 108.1c-1.3.5-6 3.3-10.5 6.3-4.4 2.9-10.7 6.8-14 8.7-3.2 1.9-9.8 7.1-14.6 11.5-5.6 5.2-12.8 10.6-20.1 14.9-6.3 3.7-13.9 8.4-16.9 10.4s-10 5.8-15.4 8.6l-9.9 5-4.3 13c-9.2 28.4-20.9 50.6-37.8 71.9l-7.9 9.9-2.8-5.5c-1.6-3.1-3.8-8.9-4.9-13-2.5-9.1-4.4-32.1-3.8-47 .4-10.2.8-12.2 4.3-20.8 3.1-7.7 3.9-11.1 4.3-18.1l.4-8.7-3.8-.6c-2.2-.4-12.2-1.1-22.4-1.6-27.9-1.3-37.3-4.5-75.9-25.7-10.2-5.7-17.8-8.9-18.7-8-1.4 1.3 11.3 27.4 17 35.1 11.5 15.5 14.9 25.5 17.1 49.6 1.8 19.9 1.9 46.1.4 62.7-1.5 15-1.8 14.4 13.5 25.7 10.7 8 19.8 16.8 22.6 22.1 1.2 2.3 1 2.7-3.6 6.7-9.2 7.8-26.1 25.3-29.7 30.8-4.5 6.6-4.7 10.1-1.2 19.4 4.4 11.7 3.2 35.5-2.7 51.5-2.1 5.7-9.5 17.3-21.8 34.1-3.8 5.2-8.4 12.3-10.1 15.7-2.9 5.7-3.1 6.9-2.6 12.8.2 3.7.7 6.9 1 7.2.8.7 10.1-2.4 16.1-5.4 2.7-1.4 8.7-4.9 13.2-7.9 13-8.3 21.7-12.8 37.9-19.4 8.2-3.3 16-6.7 17.2-7.6 2.8-1.7 4.9-6.7 6.9-15.4.8-3.6 3.3-13.8 5.6-22.8 3.8-14.6 4.4-16.2 6.4-16.2 1.8 0 2.4 1.2 4.5 8.7 2.7 9.9 3.1 21.1 1.5 45.8-.7 11.2-1.7 17.5-5.2 31.4-2.9 11.3-4.4 19.6-4.4 23.6v6.3l7 6.8c3.9 3.8 9.3 10.1 12 14 6.1 8.9 20.2 35.9 22.5 43.4 1 3 3.9 9.1 6.6 13.5s5.7 10.6 6.8 13.8 3.4 7.7 5 9.9l3 4.1.7-2.8c.9-3.6.8-7.2-.4-33.5-.6-12.4-1.6-25.9-2.3-30-1.8-12 .3-47.3 4.2-67.5l5.9-31.3c1.6-8.4 4.2-20.1 5.9-26 16-57.6 16-59 3.9-71.9-5.4-5.9-8.7-12.2-8.8-16.9 0-4.8 5.8-11.7 23.6-28.2 6.7-6.1 13.4-12.8 15-14.9 2.7-3.6 2.9-4.2 2.6-13-.5-16 3.2-35.4 12.4-65.7 2.5-8.2 5.4-19 6.5-24 1.3-6.4 3.6-12.6 7.8-21.1 7.2-14.6 27-45.2 36.3-55.9 3.7-4.3 6.8-8.2 6.8-8.7 0-1.2-4.8-1-7.9.2zM294.4 167c8.2 1.6 17.7 3.3 21.2 3.6l6.5.8.9 29.6c1.4 45.5 4.5 60.5 19.4 92.4 4.6 9.8 4.7 9.9 6.7 8 4.4-3.9 14.1-16.9 19.3-25.7 3-5.1 8.2-12.6 11.5-16.7 3.4-4.1 8.9-12.9 12.2-19.5 3.4-6.6 8.4-15.3 11.1-19.3s7.2-12.1 10-18c6.2-12.8 12.1-19.3 22-24 5.7-2.8 11.8-4.2 11.8-2.8 0 1.5-7.7 23.4-12.8 36.8-8.8 22.5-11.1 32.9-13.2 59.2-.7 9-1.5 13.7-2.7 15.5-.9 1.4-5.4 6.5-9.9 11.3-5.1 5.3-10.4 12.3-13.9 18.2-14.1 24-14.3 29.7-1.3 44.1 7.7 8.6 9.8 11.9 9.8 15.6 0 1.8-1.8 8.7-3.9 15.3-2.2 6.7-4.9 17.5-6.1 24.1-2.1 11.9-4.7 23.4-13.5 59.5-5.4 22.1-6.5 30.6-6.5 50.7 0 14.6-.1 15.3-2 15.3-1.4 0-2.9-1.8-5.4-6.7-1.9-3.8-7.1-12.7-11.5-19.8-4.5-7.2-8.6-14.8-9.2-17-.9-3.2-.7-7.1 1-19 2.7-18.9 4.4-50.5 3.6-65.5-.4-6.3-1.8-16.4-3.1-22.4l-2.5-11 3.2-4.5c9.1-12.8 11.1-16 10.7-17.5-.3-1.5-1.2-1.3-7.3 1.8-5.1 2.6-9.3 5.8-15.2 11.8-14.5 14.8-15.4 16.2-20.4 30.6-4.5 12.7-12 28.1-15.8 32.5-2 2.2-6.3 5.1-10.5 7.1-7.3 3.5-16.4 6.1-17.4 5.1-.3-.3 1.7-6.3 4.6-13.3 10.2-25 10.6-27.6 7.2-39.7-2.4-8.3-2.7-21.9-.6-26.8 2.1-5 12.4-15.6 28-28.6 20.4-17.2 20.8-18.6 7.6-29.1-9-7.2-36.8-36.4-38.5-40.4-1.2-2.8-1.3-9.3-.5-39.1.8-32.9.5-47.5-1.6-61.3-.5-3.2-.3-4.2.7-4.2.8 0 8.1 1.4 16.3 3z"/></svg>