<?xml version="1.0" standalone="no"?>
<!DOCTYPE svg PUBLIC "-//W3C//DTD SVG 20010904//EN"
 "http://www.w3.org/TR/2001/REC-SVG-20010904/DTD/svg10.dtd">
<svg version="1.0" xmlns="http://www.w3.org/2000/svg"
 width="700.000000pt" height="700.000000pt" viewBox="0 0 700.000000 700.000000"
 preserveAspectRatio="xMidYMid meet">
<metadata>
Created by potrace 1.11, written by Peter Selinger 2001-2013
</metadata>
<g transform="translate(0.000000,700.000000) scale(0.100000,-0.100000)"
fill="#000000" stroke="none">
<path d="M5010 5913 c-8 -3 -51 -30 -95 -58 -44 -29 -96 -60 -115 -70 -50 -26
-94 -60 -185 -143 -44 -41 -123 -99 -175 -130 -52 -30 -138 -82 -190 -115 -52
-34 -127 -75 -166 -93 -39 -18 -76 -39 -81 -46 -6 -7 -21 -48 -32 -91 -43
-151 -169 -431 -256 -567 -57 -90 -204 -280 -216 -280 -5 0 -19 21 -33 48 -62
123 -86 273 -86 543 0 153 1 163 30 237 40 106 60 187 60 248 l0 51 -77 7
c-42 3 -122 6 -179 6 -207 0 -351 46 -666 211 -225 118 -278 141 -278 122 0
-11 102 -236 119 -263 9 -14 41 -59 72 -101 135 -184 166 -365 156 -920 l-5
-317 31 -30 c18 -16 78 -64 134 -106 65 -48 123 -102 159 -147 l56 -70 -165
-162 c-164 -162 -227 -240 -227 -283 0 -13 12 -54 26 -91 65 -173 28 -476 -79
-643 -23 -36 -78 -114 -122 -175 -45 -60 -99 -139 -120 -175 -37 -59 -40 -72
-43 -148 -5 -96 -7 -95 94 -57 71 27 79 31 243 133 112 70 216 120 376 184 55
22 110 46 122 54 34 22 58 78 82 189 12 55 37 158 56 228 19 70 35 130 35 132
0 3 9 5 21 5 39 0 79 -145 80 -293 2 -214 -19 -410 -61 -576 -46 -187 -55
-247 -41 -285 6 -15 42 -58 79 -94 38 -37 92 -103 121 -147 66 -101 195 -356
211 -415 6 -25 32 -78 58 -119 25 -41 58 -106 74 -145 16 -38 38 -86 50 -105
22 -35 22 -35 29 -11 11 40 0 382 -18 547 -23 210 -7 585 32 768 14 66 39 191
56 277 16 87 54 251 85 365 95 354 104 394 104 450 0 71 -17 108 -85 189 -92
107 -108 175 -59 243 14 20 105 113 202 207 l177 171 6 159 c8 178 33 313 99
536 22 73 58 202 80 286 33 128 50 174 103 275 74 141 262 425 336 510 28 32
55 67 61 77 9 18 7 20 -17 19 -15 0 -35 -3 -43 -6z m-2025 -582 c94 -17 187
-33 208 -36 l37 -6 0 -122 c1 -366 31 -636 91 -823 30 -93 132 -339 149 -357
4 -5 32 20 62 55 70 81 93 115 156 218 28 47 78 119 112 160 37 46 81 116 112
180 27 58 74 142 104 187 30 45 77 128 105 185 28 57 65 121 82 142 57 72 232
165 259 138 16 -16 -2 -78 -94 -322 -44 -118 -85 -228 -90 -245 -19 -66 -47
-248 -58 -380 -7 -77 -18 -151 -25 -165 -7 -14 -53 -68 -102 -121 -54 -60
-112 -137 -149 -200 -72 -122 -90 -162 -99 -223 -9 -58 16 -110 101 -206 107
-122 108 -124 48 -314 -18 -59 -43 -158 -54 -220 -22 -118 -74 -345 -148 -646
-45 -184 -45 -187 -51 -405 l-6 -220 -25 -3 c-22 -3 -30 6 -67 81 -22 46 -72
133 -110 193 -38 60 -75 124 -82 142 -16 37 -12 118 14 322 13 96 18 211 19
400 1 244 -1 272 -21 353 -32 125 -31 133 31 218 29 41 61 88 70 106 l16 32
-31 -9 c-61 -18 -118 -61 -221 -169 -107 -111 -131 -149 -173 -271 -32 -93
-97 -238 -128 -287 -47 -74 -136 -126 -276 -163 -23 -6 -46 -9 -49 -6 -3 3 24
81 61 173 96 244 93 220 46 433 -13 61 -7 177 12 212 27 51 122 147 272 275
202 173 207 190 89 284 -87 69 -364 354 -388 400 -21 40 -21 40 -10 479 7 285
6 353 -8 455 -9 65 -16 123 -16 128 0 5 12 7 28 4 15 -3 104 -19 197 -36z"/>
</g>
</svg>
